<?xml version="1.0" standalone="no"?>
<!DOCTYPE svg PUBLIC "-//W3C//DTD SVG 20010904//EN"
 "http://www.w3.org/TR/2001/REC-SVG-20010904/DTD/svg10.dtd">
<svg version="1.0" xmlns="http://www.w3.org/2000/svg"
 width="600.000000pt" height="600.000000pt" viewBox="0 0 600.000000 600.000000"
 preserveAspectRatio="xMidYMid meet">
<metadata>
Created by potrace 1.11, written by Peter Selinger 2001-2013
</metadata>
<g transform="translate(0.000000,600.000000) scale(0.100000,-0.100000)"
fill="#000000" stroke="none">
<path d="M2829 5985 c-243 -47 -457 -175 -609 -364 -19 -24 -41 -49 -47 -56
-7 -8 -13 -16 -13 -19 0 -4 -15 -28 -33 -54 -18 -26 -46 -72 -62 -102 -16 -30
-36 -63 -44 -72 -8 -10 -10 -18 -6 -18 4 0 1 -8 -7 -17 -8 -10 -43 -74 -78
-143 -35 -69 -108 -210 -162 -315 -121 -237 -580 -1156 -689 -1382 -107 -221
-192 -398 -241 -503 -22 -47 -59 -123 -81 -170 -22 -47 -41 -87 -42 -90 -1 -3
-17 -39 -37 -80 -19 -41 -52 -111 -72 -155 -21 -44 -50 -107 -66 -140 -27 -55
-71 -153 -75 -165 -2 -5 -23 -52 -68 -150 -142 -310 -189 -500 -183 -740 2
-74 7 -148 10 -165 3 -16 9 -46 13 -65 3 -19 7 -39 9 -45 2 -5 5 -19 8 -30 25
-111 127 -319 207 -425 115 -153 264 -281 424 -366 81 -44 299 -127 308 -118
2 3 15 0 29 -5 46 -17 133 -25 278 -25 143 0 174 3 277 23 63 12 201 54 268
80 107 43 384 199 393 223 2 4 8 8 13 8 8 0 89 60 168 125 67 55 157 139 264
246 65 66 120 119 122 119 2 0 73 -70 159 -155 86 -85 156 -153 156 -150 0 3
8 -3 18 -13 10 -10 51 -44 92 -77 41 -33 77 -62 80 -65 3 -3 51 -36 107 -73
216 -144 467 -246 693 -283 69 -11 335 -12 388 -2 116 23 219 51 273 73 32 13
59 22 59 20 0 -10 191 102 254 149 68 51 216 188 216 201 0 3 13 20 30 38 16
18 30 35 30 39 0 4 6 13 13 20 49 52 158 283 182 388 2 8 4 15 5 15 2 0 8 29
24 115 26 146 13 413 -28 537 -4 12 -8 30 -10 40 -15 73 -104 288 -237 572
-27 57 -49 105 -49 107 0 2 -23 52 -51 111 -66 138 -118 249 -162 343 -249
534 -746 1542 -1077 2185 -180 350 -230 441 -301 547 -142 213 -290 334 -524
429 -24 10 -119 36 -160 44 -61 13 -291 12 -356 0z m338 -391 c176 -50 312
-167 430 -369 107 -184 678 -1311 963 -1900 217 -449 270 -561 270 -575 0 -6
5 -10 10 -10 6 0 10 -4 10 -9 0 -5 23 -58 51 -118 52 -111 157 -335 201 -433
14 -30 45 -95 68 -145 157 -334 218 -498 237 -635 8 -54 8 -213 0 -255 -40
-231 -152 -423 -329 -567 -26 -21 -51 -38 -57 -38 -6 0 -11 -4 -11 -8 0 -21
-201 -106 -301 -128 -84 -18 -214 -23 -319 -12 -125 13 -311 77 -448 155 -37
21 -71 40 -77 42 -5 2 -14 8 -20 13 -5 5 -49 37 -96 71 -128 92 -299 249 -458
420 l-35 37 30 37 c131 164 275 369 373 532 101 167 241 451 223 451 -4 0 -2
4 3 8 22 16 105 295 121 405 24 173 21 390 -7 463 -4 13 -7 24 -4 24 6 0 -23
98 -41 138 -66 149 -109 218 -193 307 -117 123 -271 218 -441 268 -117 36
-156 41 -305 41 -135 1 -213 -6 -259 -23 -14 -6 -26 -9 -26 -6 0 2 -31 -7 -68
-19 -241 -82 -425 -231 -545 -441 -43 -74 -105 -237 -113 -295 -19 -146 -24
-324 -10 -400 4 -19 9 -46 11 -60 12 -80 33 -164 66 -268 72 -223 210 -499
373 -742 55 -83 176 -252 185 -260 3 -3 33 -40 65 -83 l59 -78 -29 -31 c-180
-195 -393 -383 -549 -486 -147 -97 -359 -190 -472 -207 -21 -3 -61 -9 -89 -13
-54 -9 -207 -8 -265 2 -56 9 -152 36 -189 52 -81 37 -168 82 -180 94 -3 3 -27
23 -54 44 -61 49 -83 71 -132 132 -21 27 -42 51 -46 52 -5 2 -8 8 -8 13 0 5
-11 27 -24 47 -69 110 -118 282 -121 431 -2 76 2 113 20 210 16 90 94 289 212
541 20 41 48 102 63 135 15 33 42 90 59 128 17 37 44 95 60 130 16 34 50 107
76 162 26 55 72 152 102 215 30 63 69 144 86 180 18 36 31 68 29 73 -1 4 2 7
8 7 5 0 10 5 10 10 0 6 54 120 119 254 66 135 122 254 126 265 3 12 11 21 16
21 5 0 9 6 9 14 0 11 488 993 560 1126 7 14 17 32 21 40 5 8 28 53 51 100 24
47 45 87 48 90 3 3 18 32 34 65 16 33 38 72 48 88 11 15 16 27 12 27 -4 0 -1
8 7 18 8 9 23 33 33 52 85 157 209 285 336 347 44 21 135 48 190 55 54 8 182
-2 237 -18z m-29 -2179 c12 -3 30 -7 40 -9 137 -31 289 -134 358 -242 10 -16
21 -31 24 -34 9 -7 48 -109 60 -158 26 -102 28 -251 5 -362 -3 -14 -7 -36 -10
-50 -3 -14 -14 -56 -25 -95 -25 -85 -25 -86 -33 -105 -14 -33 -30 -75 -32 -82
-2 -5 -4 -11 -5 -15 -1 -5 -2 -11 -1 -15 0 -5 -4 -8 -9 -8 -6 0 -10 -6 -10
-14 0 -30 -218 -429 -249 -456 -3 -3 -24 -32 -45 -65 -22 -33 -75 -108 -118
-167 -63 -85 -82 -105 -92 -95 -20 20 -150 198 -192 262 -21 33 -42 62 -45 65
-30 27 -206 350 -258 475 -89 213 -120 335 -128 501 -9 200 38 354 147 476 84
94 240 178 364 195 22 3 42 6 44 8 5 5 185 -4 210 -10z"/>
</g>
</svg>
